# Blender v2.91.2 OBJ File: 'arrow.blend'
# www.blender.org
mtllib 18.mtl
o Arrow_Cylinder.030
v 0.000820 0.502689 -0.012415
v 0.000820 -0.708561 -0.012415
v -0.009722 -0.708561 -0.006329
v -0.009722 0.502689 -0.006329
v -0.009722 -0.708561 0.005844
v -0.009722 0.502689 0.005844
v 0.000820 -0.708561 0.011930
v 0.000820 0.502689 0.011930
v 0.011362 -0.708561 0.005844
v 0.011362 0.502689 0.005844
v 0.011362 -0.708561 -0.006329
v 0.011362 0.502689 -0.006329
v 0.000820 0.523690 0.011930
v -0.034413 0.523690 0.005844
v 0.000820 0.523690 -0.012415
v -0.034413 0.523690 -0.006329
v -0.002881 0.727992 -0.002135
v 0.000820 0.727992 -0.004027
v 0.036053 0.523690 -0.006329
v 0.036053 0.523690 0.005844
v 0.004520 0.727992 -0.002135
v 0.004520 0.727992 0.001650
v 0.000820 0.727992 0.003542
v -0.002881 0.727992 0.001650
v 0.005098 -0.686575 -0.002086
v 0.045325 -0.727992 0.068192
v 0.036921 -0.727992 0.073003
v -0.003306 -0.686575 0.002724
v -0.003306 -0.551255 0.002725
v 0.020592 -0.578748 0.044475
v 0.014712 -0.535717 0.034203
v -0.003306 -0.497564 0.002725
v 0.023116 -0.535717 0.029392
v 0.005098 -0.497564 -0.002086
v 0.005098 -0.652331 -0.002086
v 0.038063 -0.673995 0.055506
v 0.005098 -0.551255 -0.002086
v 0.029659 -0.673995 0.060316
v 0.028996 -0.578748 0.039664
v 0.010736 -0.576627 0.027256
v 0.019140 -0.576627 0.022446
v 0.023238 -0.600793 0.049098
v 0.031642 -0.600793 0.044287
v 0.028390 -0.654546 0.058097
v 0.036793 -0.654546 0.053287
v 0.012386 -0.647776 0.030138
v 0.020789 -0.647776 0.025328
v -0.003306 -0.652331 0.002725
v -0.003306 -0.632116 0.002725
v 0.005098 -0.632116 -0.002086
v -0.003306 -0.611901 0.002725
v 0.005098 -0.611901 -0.002086
v -0.003306 -0.591685 0.002725
v 0.005098 -0.591685 -0.002086
v -0.003306 -0.571470 0.002725
v 0.005098 -0.571470 -0.002086
v -0.002915 -0.686575 -0.003026
v 0.037834 -0.727992 -0.073003
v 0.046201 -0.727992 -0.068130
v 0.005452 -0.686575 0.001847
v 0.005452 -0.551255 0.001847
v 0.029660 -0.578748 -0.039724
v 0.023704 -0.535717 -0.029496
v 0.005452 -0.497564 0.001847
v 0.015336 -0.535717 -0.034369
v -0.002915 -0.497564 -0.003026
v -0.002915 -0.652331 -0.003026
v 0.030478 -0.673995 -0.060370
v -0.002915 -0.551255 -0.003026
v 0.038845 -0.673995 -0.055498
v 0.021292 -0.578748 -0.044597
v 0.019676 -0.576627 -0.022580
v 0.011309 -0.576627 -0.027453
v 0.032341 -0.600793 -0.044328
v 0.023973 -0.600793 -0.049200
v 0.037559 -0.654546 -0.053289
v 0.029191 -0.654546 -0.058161
v 0.021347 -0.647776 -0.025449
v 0.012980 -0.647776 -0.030322
v 0.005452 -0.652331 0.001847
v 0.005452 -0.632116 0.001847
v -0.002915 -0.632116 -0.003026
v 0.005452 -0.611901 0.001847
v -0.002915 -0.611901 -0.003026
v 0.005452 -0.591685 0.001847
v -0.002915 -0.591685 -0.003026
v 0.005452 -0.571470 0.001847
v -0.002915 -0.571470 -0.003026
v 0.000277 -0.686575 0.004384
v -0.080699 -0.727992 0.004083
v -0.080663 -0.727992 -0.005601
v 0.000313 -0.686575 -0.005299
v 0.000313 -0.551255 -0.005299
v -0.047792 -0.578748 -0.005478
v -0.035957 -0.535717 -0.005434
v 0.000313 -0.497564 -0.005299
v -0.035993 -0.535717 0.004249
v 0.000277 -0.497564 0.004384
v 0.000277 -0.652331 0.004384
v -0.066081 -0.673995 0.004137
v 0.000277 -0.551255 0.004384
v -0.066045 -0.673995 -0.005546
v -0.047828 -0.578748 0.004205
v -0.027953 -0.576627 -0.005404
v -0.027989 -0.576627 0.004279
v -0.053119 -0.600793 -0.005498
v -0.053155 -0.600793 0.004185
v -0.063489 -0.654546 -0.005537
v -0.063525 -0.654546 0.004146
v -0.031273 -0.647776 -0.005417
v -0.031309 -0.647776 0.004266
v 0.000313 -0.652331 -0.005299
v 0.000313 -0.632116 -0.005299
v 0.000277 -0.632116 0.004384
v 0.000313 -0.611901 -0.005299
v 0.000277 -0.611901 0.004384
v 0.000313 -0.591685 -0.005299
v 0.000277 -0.591685 0.004384
v 0.000313 -0.571470 -0.005299
v 0.000277 -0.571470 0.004384
vt 0.532332 0.443443
vt 0.178779 0.401001
vt 0.178779 0.443443
vt 0.798999 0.001001
vt 0.756557 0.354555
vt 0.798999 0.354555
vt 0.532332 0.398999
vt 0.178779 0.356557
vt 0.178779 0.398999
vt 0.576777 0.001001
vt 0.534334 0.354555
vt 0.576777 0.354555
vt 0.577778 0.932332
vt 0.534334 0.921722
vt 0.577778 0.889890
vt 0.665666 0.001001
vt 0.623223 0.354555
vt 0.665666 0.354555
vt 0.532332 0.576777
vt 0.178779 0.534334
vt 0.178779 0.576777
vt 0.532332 0.401001
vt 0.756557 0.001001
vt 0.532332 0.356557
vt 0.534334 0.001001
vt 0.534334 0.900500
vt 0.621221 0.900500
vt 0.621221 0.921722
vt 0.623223 0.001001
vt 0.532332 0.534334
vt 0.087888 0.801001
vt 0.001001 0.887888
vt 0.087888 0.887888
vt 0.843443 0.534334
vt 0.801001 0.887888
vt 0.843443 0.887888
vt 0.176777 0.801001
vt 0.089890 0.887888
vt 0.176777 0.887888
vt 0.534334 0.801001
vt 0.621221 0.887888
vt 0.621221 0.801001
vt 0.623223 0.801001
vt 0.710110 0.887888
vt 0.710110 0.801001
vt 0.532332 0.445445
vt 0.178779 0.487888
vt 0.532332 0.487888
vt 0.621221 0.001001
vt 0.578779 0.354555
vt 0.621221 0.354555
vt 0.532332 0.489890
vt 0.178779 0.532332
vt 0.532332 0.532332
vt 0.001001 0.801001
vt 0.801001 0.534334
vt 0.089890 0.801001
vt 0.534334 0.887888
vt 0.623223 0.887888
vt 0.178779 0.445445
vt 0.578779 0.001001
vt 0.178779 0.489890
vt 0.912112 0.178779
vt 0.954555 0.265666
vt 0.954555 0.178779
vt 0.887888 0.889890
vt 0.801001 0.932332
vt 0.887888 0.932332
vt 0.922224 0.934334
vt 0.932332 0.939389
vt 0.932332 0.949500
vt 0.845445 0.534334
vt 0.865666 0.887888
vt 0.865666 0.534334
vt 0.354555 0.889890
vt 0.001001 0.910110
vt 0.354555 0.910110
vt 0.912112 0.265666
vt 0.801001 0.889890
vt 0.922224 0.954555
vt 0.912112 0.949500
vt 0.912112 0.939389
vt 0.845445 0.887888
vt 0.001001 0.889890
vt 0.910110 0.356557
vt 0.889890 0.532332
vt 0.910110 0.532332
vt 0.176777 0.178779
vt 0.001001 0.354555
vt 0.176777 0.354555
vt 0.178779 0.932332
vt 0.354555 0.912112
vt 0.178779 0.912112
vt 0.621221 0.534334
vt 0.534334 0.710110
vt 0.621221 0.710110
vt 0.176777 0.932332
vt 0.001001 0.912112
vt 0.001001 0.932332
vt 0.910110 0.178779
vt 0.889890 0.354555
vt 0.910110 0.354555
vt 0.178779 0.998999
vt 0.265666 0.978779
vt 0.178779 0.978779
vt 0.932332 0.132332
vt 0.912112 0.089890
vt 0.912112 0.132332
vt 0.976777 0.798999
vt 0.956557 0.712112
vt 0.956557 0.798999
vt 0.267668 0.954555
vt 0.443443 0.934334
vt 0.267668 0.934334
vt 0.976777 0.623223
vt 0.956557 0.710110
vt 0.976777 0.710110
vt 0.710110 0.976777
vt 0.623223 0.956557
vt 0.623223 0.976777
vt 0.976777 0.621221
vt 0.956557 0.534334
vt 0.956557 0.621221
vt 0.910110 0.089890
vt 0.889890 0.132332
vt 0.910110 0.132332
vt 0.976777 0.089890
vt 0.956557 0.132332
vt 0.976777 0.132332
vt 0.954555 0.089890
vt 0.934334 0.132332
vt 0.954555 0.132332
vt 0.932332 0.134334
vt 0.912112 0.176777
vt 0.932332 0.176777
vt 0.910110 0.134334
vt 0.889890 0.176777
vt 0.910110 0.176777
vt 0.001001 0.356557
vt 0.176777 0.532332
vt 0.176777 0.356557
vt 0.178779 0.887888
vt 0.265666 0.845445
vt 0.178779 0.845445
vt 0.445445 0.845445
vt 0.532332 0.932332
vt 0.532332 0.845445
vt 0.798999 0.534334
vt 0.712112 0.710110
vt 0.798999 0.710110
vt 0.356557 0.754555
vt 0.532332 0.667668
vt 0.356557 0.667668
vt 0.887888 0.001001
vt 0.801001 0.176777
vt 0.887888 0.176777
vt 0.001001 0.798999
vt 0.176777 0.712112
vt 0.001001 0.712112
vt 0.887888 0.354555
vt 0.801001 0.178779
vt 0.801001 0.354555
vt 0.710110 0.798999
vt 0.534334 0.712112
vt 0.534334 0.798999
vt 0.887888 0.532332
vt 0.801001 0.356557
vt 0.801001 0.532332
vt 0.954555 0.534334
vt 0.867668 0.621221
vt 0.954555 0.621221
vt 0.887888 0.976777
vt 0.801001 0.934334
vt 0.801001 0.976777
vt 0.976777 0.532332
vt 0.956557 0.356557
vt 0.956557 0.532332
vt 0.354555 0.001001
vt 0.178779 0.176777
vt 0.354555 0.176777
vt 0.798999 0.954555
vt 0.623223 0.934334
vt 0.623223 0.954555
vt 0.443443 0.178779
vt 0.356557 0.354555
vt 0.443443 0.354555
vt 0.621221 0.976777
vt 0.445445 0.956557
vt 0.445445 0.976777
vt 0.932332 0.267668
vt 0.912112 0.443443
vt 0.932332 0.443443
vt 0.354555 0.998999
vt 0.267668 0.978779
vt 0.267668 0.998999
vt 0.976777 0.176777
vt 0.956557 0.134334
vt 0.956557 0.176777
vt 0.976777 0.976777
vt 0.956557 0.889890
vt 0.956557 0.976777
vt 0.001001 0.954555
vt 0.176777 0.934334
vt 0.001001 0.934334
vt 0.998999 0.001001
vt 0.978779 0.087888
vt 0.998999 0.087888
vt 0.176777 0.998999
vt 0.089890 0.978779
vt 0.089890 0.998999
vt 0.954555 0.445445
vt 0.934334 0.532332
vt 0.954555 0.532332
vt 0.954555 0.134334
vt 0.934334 0.176777
vt 0.954555 0.176777
vt 0.487888 0.756557
vt 0.467668 0.798999
vt 0.487888 0.798999
vt 0.465666 0.756557
vt 0.445445 0.798999
vt 0.465666 0.798999
vt 0.532332 0.756557
vt 0.512112 0.798999
vt 0.532332 0.798999
vt 0.510110 0.756557
vt 0.489890 0.798999
vt 0.510110 0.798999
vt 0.356557 0.001001
vt 0.532332 0.176777
vt 0.532332 0.001001
vt 0.267668 0.887888
vt 0.354555 0.845445
vt 0.267668 0.845445
vt 0.867668 0.623223
vt 0.954555 0.710110
vt 0.954555 0.623223
vt 0.443443 0.756557
vt 0.356557 0.932332
vt 0.443443 0.932332
vt 0.178779 0.843443
vt 0.354555 0.756557
vt 0.178779 0.756557
vt 0.798999 0.712112
vt 0.712112 0.887888
vt 0.798999 0.887888
vt 0.178779 0.754555
vt 0.354555 0.667668
vt 0.178779 0.667668
vt 0.798999 0.532332
vt 0.712112 0.356557
vt 0.712112 0.532332
vt 0.176777 0.710110
vt 0.001001 0.623223
vt 0.001001 0.710110
vt 0.754555 0.354555
vt 0.667668 0.178779
vt 0.667668 0.354555
vt 0.954555 0.712112
vt 0.867668 0.798999
vt 0.954555 0.798999
vt 0.265666 0.976777
vt 0.178779 0.934334
vt 0.178779 0.976777
vt 0.954555 0.267668
vt 0.934334 0.443443
vt 0.954555 0.443443
vt 0.176777 0.001001
vt 0.001001 0.176777
vt 0.176777 0.176777
vt 0.445445 0.954555
vt 0.621221 0.934334
vt 0.445445 0.934334
vt 0.754555 0.001001
vt 0.667668 0.176777
vt 0.754555 0.176777
vt 0.176777 0.976777
vt 0.001001 0.956557
vt 0.001001 0.976777
vt 0.976777 0.354555
vt 0.956557 0.178779
vt 0.956557 0.354555
vt 0.798999 0.976777
vt 0.712112 0.956557
vt 0.712112 0.976777
vt 0.487888 0.801001
vt 0.467668 0.843443
vt 0.487888 0.843443
vt 0.976777 0.887888
vt 0.956557 0.801001
vt 0.956557 0.887888
vt 0.267668 0.976777
vt 0.443443 0.956557
vt 0.267668 0.956557
vt 0.910110 0.889890
vt 0.889890 0.976777
vt 0.910110 0.976777
vt 0.087888 0.998999
vt 0.001001 0.978779
vt 0.001001 0.998999
vt 0.932332 0.445445
vt 0.912112 0.532332
vt 0.932332 0.532332
vt 0.465666 0.801001
vt 0.445445 0.843443
vt 0.465666 0.843443
vt 0.532332 0.801001
vt 0.512112 0.843443
vt 0.532332 0.843443
vt 0.510110 0.801001
vt 0.489890 0.843443
vt 0.510110 0.843443
vt 0.954555 0.889890
vt 0.934334 0.932332
vt 0.954555 0.932332
vt 0.932332 0.889890
vt 0.912112 0.932332
vt 0.932332 0.932332
vt 0.178779 0.178779
vt 0.354555 0.354555
vt 0.354555 0.178779
vt 0.623223 0.932332
vt 0.710110 0.889890
vt 0.623223 0.889890
vt 0.867668 0.801001
vt 0.954555 0.887888
vt 0.954555 0.801001
vt 0.710110 0.534334
vt 0.623223 0.710110
vt 0.710110 0.710110
vt 0.356557 0.665666
vt 0.532332 0.578779
vt 0.356557 0.578779
vt 0.710110 0.356557
vt 0.623223 0.532332
vt 0.710110 0.532332
vt 0.178779 0.665666
vt 0.354555 0.578779
vt 0.178779 0.578779
vt 0.621221 0.532332
vt 0.534334 0.356557
vt 0.534334 0.532332
vt 0.176777 0.621221
vt 0.001001 0.534334
vt 0.001001 0.621221
vt 0.532332 0.354555
vt 0.445445 0.178779
vt 0.445445 0.354555
vt 0.976777 0.001001
vt 0.889890 0.087888
vt 0.976777 0.087888
vt 0.798999 0.932332
vt 0.712112 0.889890
vt 0.712112 0.932332
vt 0.889890 0.356557
vt 0.001001 0.178779
vt 0.354555 0.932332
vt 0.534334 0.534334
vt 0.176777 0.912112
vt 0.889890 0.178779
vt 0.265666 0.998999
vt 0.932332 0.089890
vt 0.976777 0.712112
vt 0.443443 0.954555
vt 0.956557 0.623223
vt 0.710110 0.956557
vt 0.976777 0.534334
vt 0.889890 0.089890
vt 0.956557 0.089890
vt 0.934334 0.089890
vt 0.912112 0.134334
vt 0.889890 0.134334
vt 0.001001 0.532332
vt 0.265666 0.887888
vt 0.445445 0.932332
vt 0.712112 0.534334
vt 0.532332 0.754555
vt 0.801001 0.001001
vt 0.176777 0.798999
vt 0.887888 0.178779
vt 0.710110 0.712112
vt 0.887888 0.356557
vt 0.867668 0.534334
vt 0.887888 0.934334
vt 0.976777 0.356557
vt 0.178779 0.001001
vt 0.798999 0.934334
vt 0.356557 0.178779
vt 0.621221 0.956557
vt 0.912112 0.267668
vt 0.354555 0.978779
vt 0.976777 0.134334
vt 0.976777 0.889890
vt 0.176777 0.954555
vt 0.978779 0.001001
vt 0.176777 0.978779
vt 0.934334 0.445445
vt 0.934334 0.134334
vt 0.467668 0.756557
vt 0.445445 0.756557
vt 0.512112 0.756557
vt 0.489890 0.756557
vt 0.356557 0.176777
vt 0.354555 0.887888
vt 0.867668 0.710110
vt 0.356557 0.756557
vt 0.354555 0.843443
vt 0.712112 0.712112
vt 0.354555 0.754555
vt 0.798999 0.356557
vt 0.176777 0.623223
vt 0.754555 0.178779
vt 0.867668 0.712112
vt 0.265666 0.934334
vt 0.934334 0.267668
vt 0.001001 0.001001
vt 0.621221 0.954555
vt 0.667668 0.001001
vt 0.176777 0.956557
vt 0.976777 0.178779
vt 0.798999 0.956557
vt 0.467668 0.801001
vt 0.976777 0.801001
vt 0.443443 0.976777
vt 0.889890 0.889890
vt 0.087888 0.978779
vt 0.912112 0.445445
vt 0.445445 0.801001
vt 0.512112 0.801001
vt 0.489890 0.801001
vt 0.934334 0.889890
vt 0.912112 0.889890
vt 0.178779 0.354555
vt 0.710110 0.932332
vt 0.867668 0.887888
vt 0.623223 0.534334
vt 0.532332 0.665666
vt 0.623223 0.356557
vt 0.354555 0.665666
vt 0.621221 0.356557
vt 0.176777 0.534334
vt 0.532332 0.178779
vt 0.889890 0.001001
vt 0.798999 0.889890
vn -0.5000 0.0000 -0.8660
vn -1.0000 -0.0000 0.0000
vn -0.5000 -0.0000 0.8660
vn 0.5000 -0.0000 0.8660
vn 0.0000 -1.0000 0.0000
vn 1.0000 -0.0000 0.0000
vn 0.5000 0.0000 -0.8660
vn -0.3193 -0.1124 0.9410
vn -0.2808 -0.1344 0.9503
vn -0.1669 -0.1962 0.9662
vn -0.1738 0.0463 -0.9837
vn -0.4276 0.0377 -0.9032
vn -0.4549 0.0365 -0.8898
vn 0.3193 -0.1124 -0.9410
vn 0.2808 -0.1344 -0.9503
vn 0.1669 -0.1962 -0.9662
vn 0.3193 -0.1124 0.9410
vn 0.2808 -0.1344 0.9503
vn -0.3193 -0.1124 -0.9410
vn -0.2808 -0.1344 -0.9503
vn 0.1738 0.0463 -0.9837
vn 0.4277 0.0377 -0.9031
vn 0.1700 0.0465 -0.9843
vn 0.1738 0.0463 0.9837
vn 0.4277 0.0377 0.9031
vn 0.4550 0.0365 0.8898
vn -0.1738 0.0463 0.9837
vn -0.4276 0.0377 0.9032
vn -0.1700 0.0464 0.9843
vn -0.1700 0.0464 -0.9843
vn 0.1669 -0.1962 0.9662
vn -0.1669 -0.1962 -0.9662
vn 0.4550 0.0365 -0.8898
vn 0.1700 0.0465 0.9843
vn -0.4549 0.0365 0.8898
vn -0.6479 -0.7617 0.0000
vn 0.6479 -0.7617 0.0000
vn 0.0000 1.0000 0.0000
vn -0.9883 0.1525 0.0000
vn 0.9883 0.1525 0.0000
vn -0.2262 -0.8903 -0.3952
vn -0.8679 -0.0000 0.4968
vn 0.3601 0.6890 0.6290
vn 0.8679 0.0000 -0.4968
vn -0.4968 0.0000 -0.8679
vn 0.4795 0.2613 0.8377
vn 0.4790 0.2652 0.8368
vn -0.0528 -0.9943 -0.0923
vn 0.3441 0.7213 0.6011
vn 0.4878 0.1894 0.8521
vn 0.4878 0.1894 0.8522
vn -0.1022 -0.9786 -0.1785
vn 0.2991 0.7985 0.5225
vn -0.4967 0.0000 -0.8679
vn -0.2292 -0.8903 0.3935
vn 0.8642 -0.0000 0.5032
vn 0.3647 0.6890 -0.6263
vn 0.3648 0.6890 -0.6263
vn -0.8642 0.0000 -0.5032
vn -0.5033 -0.0000 0.8641
vn 0.4858 0.2613 -0.8341
vn 0.4857 0.2613 -0.8341
vn 0.4852 0.2652 -0.8332
vn -0.0535 -0.9943 0.0919
vn 0.3486 0.7213 -0.5985
vn 0.3485 0.7213 -0.5986
vn 0.4940 0.1894 -0.8486
vn -0.1035 -0.9786 0.1777
vn 0.3030 0.7985 -0.5203
vn 0.4554 -0.8903 0.0017
vn 0.0037 -0.0000 -1.0000
vn -0.7248 0.6890 -0.0027
vn -0.0037 0.0000 1.0000
vn 1.0000 -0.0000 0.0037
vn -0.9652 0.2613 -0.0036
vn -0.9642 0.2652 -0.0036
vn 0.1063 -0.9943 0.0004
vn -0.6926 0.7213 -0.0026
vn -0.9819 0.1894 -0.0037
vn -0.9819 0.1894 -0.0036
vn 0.2056 -0.9786 0.0008
vn -0.6020 0.7985 -0.0022
vn 0.4796 0.2613 0.8377
usemtl LightWood.002
s 1
f 2/1/1 4/2/1 1/3/1
f 3/4/2 6/5/2 4/6/2
f 5/7/3 8/8/3 6/9/3
f 7/10/4 10/11/4 8/12/4
f 7/13/5 5/14/5 2/15/5
f 9/16/6 12/17/6 10/18/6
f 11/19/7 1/20/7 12/21/7
f 2/1/1 3/22/1 4/2/1
f 3/4/2 5/23/2 6/5/2
f 5/7/3 7/24/3 8/8/3
f 7/10/4 9/25/4 10/11/4
f 5/14/5 3/26/5 2/15/5
f 2/15/5 11/27/5 9/28/5
f 9/28/5 7/13/5 2/15/5
f 9/16/6 11/29/6 12/17/6
f 11/19/7 2/30/7 1/20/7
usemtl Steel.001
f 6/31/8 13/32/9 14/33/10
f 15/34/11 17/35/12 18/36/13
f 12/37/14 15/38/15 19/39/16
f 10/40/17 13/41/18 8/42/4
f 4/43/19 15/44/20 1/45/1
f 15/46/21 21/47/22 19/48/23
f 13/49/24 22/50/25 23/51/26
f 13/52/27 24/53/28 14/54/29
f 6/31/8 8/55/3 13/32/9
f 15/34/11 16/56/30 17/35/12
f 12/37/14 1/57/7 15/38/15
f 10/40/17 20/58/31 13/41/18
f 4/43/19 16/59/32 15/44/20
f 15/46/21 18/60/33 21/47/22
f 13/49/24 20/61/34 22/50/25
f 13/52/27 23/62/35 24/53/28
usemtl LightSteel.001
f 6/63/36 16/64/36 4/65/36
f 12/66/37 20/67/37 10/68/37
f 23/69/38 22/70/38 21/71/38
f 14/72/39 17/73/39 16/74/39
f 19/75/40 22/76/40 20/77/40
f 6/63/36 14/78/36 16/64/36
f 12/66/37 19/79/37 20/67/37
f 21/71/38 18/80/38 23/69/38
f 18/80/38 17/81/38 23/69/38
f 17/81/38 24/82/38 23/69/38
f 14/72/39 24/83/39 17/73/39
f 19/75/40 21/84/40 22/76/40
usemtl DarkRed.001
f 26/85/41 28/86/41 25/87/41
f 29/88/42 31/89/42 32/90/42
f 32/91/43 33/92/43 34/93/43
f 36/94/44 25/95/44 35/96/44
f 32/97/45 37/98/45 29/99/45
f 27/100/46 36/101/46 38/102/46
f 31/103/47 39/104/47 33/105/47
f 30/106/48 41/107/48 39/108/48
f 40/109/49 43/110/49 41/111/49
f 42/112/50 45/113/51 43/114/50
f 46/115/52 45/116/52 44/117/52
f 38/118/53 47/119/53 46/120/53
f 28/121/45 35/122/45 25/123/54
f 49/124/45 35/125/45 48/126/45
f 51/127/45 50/128/45 49/129/45
f 53/130/45 52/131/45 51/132/45
f 55/133/45 54/134/45 53/135/45
f 29/136/45 56/137/45 55/138/45
f 33/139/44 37/140/44 34/141/44
f 37/142/44 41/143/44 56/144/44
f 41/145/44 54/146/44 56/147/44
f 43/148/44 52/149/44 54/150/44
f 52/151/44 47/152/44 50/153/44
f 47/154/44 35/155/44 50/156/44
f 28/157/42 38/158/42 48/159/42
f 48/160/42 46/161/42 49/162/42
f 46/163/42 51/164/42 49/165/42
f 51/166/42 42/167/42 53/168/42
f 53/169/42 40/170/42 55/171/42
f 40/172/42 29/173/42 55/174/42
f 57/175/55 59/176/55 60/177/55
f 61/178/56 63/179/56 64/180/56
f 63/181/57 66/182/58 64/183/58
f 68/184/59 57/185/59 67/186/59
f 64/187/60 69/188/60 61/189/60
f 59/190/61 68/191/62 70/192/62
f 62/193/63 65/194/63 63/195/63
f 62/196/64 73/197/64 71/198/64
f 72/199/65 75/200/66 73/201/65
f 74/202/67 77/203/67 75/204/67
f 78/205/68 77/206/68 76/207/68
f 70/208/69 79/209/69 78/210/69
f 80/211/60 57/212/60 60/213/60
f 81/214/60 67/215/60 80/216/60
f 83/217/60 82/218/60 81/219/60
f 85/220/60 84/221/60 83/222/60
f 87/223/60 86/224/60 85/225/60
f 61/226/60 88/227/60 87/228/60
f 65/229/59 69/230/59 66/231/59
f 69/232/59 73/233/59 88/234/59
f 73/235/59 86/236/59 88/237/59
f 75/238/59 84/239/59 86/240/59
f 84/241/59 79/242/59 82/243/59
f 79/244/59 67/245/59 82/246/59
f 60/247/56 70/248/56 80/249/56
f 80/250/56 78/251/56 81/252/56
f 78/253/56 83/254/56 81/255/56
f 83/256/56 74/257/56 85/258/56
f 85/259/56 72/260/56 87/261/56
f 72/262/56 61/263/56 87/264/56
f 90/265/70 92/266/70 89/267/70
f 93/268/71 95/269/71 96/270/71
f 96/271/72 97/272/72 98/273/72
f 100/274/73 89/275/73 99/276/73
f 96/277/74 101/278/74 93/279/74
f 102/280/75 90/281/75 100/282/75
f 94/283/76 97/284/76 95/285/76
f 104/286/77 103/287/77 94/288/77
f 104/289/78 107/290/78 105/291/78
f 106/292/79 109/293/80 107/294/79
f 110/295/81 109/296/81 108/297/81
f 102/298/82 111/299/82 110/300/82
f 112/301/74 89/302/74 92/303/74
f 113/304/74 99/305/74 112/306/74
f 115/307/74 114/308/74 113/309/74
f 117/310/74 116/311/74 115/312/74
f 119/313/74 118/314/74 117/315/74
f 93/316/74 120/317/74 119/318/74
f 97/319/73 101/320/73 98/321/73
f 101/322/73 105/323/73 120/324/73
f 105/325/73 118/326/73 120/327/73
f 107/328/73 116/329/73 118/330/73
f 116/331/73 111/332/73 114/333/73
f 111/334/73 99/335/73 114/336/73
f 92/337/71 102/338/71 112/339/71
f 112/340/71 110/341/71 113/342/71
f 110/343/71 115/344/71 113/345/71
f 115/346/71 106/347/71 117/348/71
f 117/349/71 104/350/71 119/351/71
f 104/352/71 93/353/71 119/354/71
f 26/85/41 27/355/41 28/86/41
f 29/88/42 30/356/42 31/89/42
f 32/91/43 31/357/43 33/92/43
f 36/94/44 26/358/44 25/95/44
f 32/97/45 34/359/45 37/98/45
f 27/100/46 26/360/83 36/101/46
f 31/103/47 30/361/47 39/104/47
f 30/106/48 40/362/48 41/107/48
f 40/109/49 42/363/49 43/110/49
f 42/112/50 44/364/51 45/113/51
f 46/115/52 47/365/52 45/116/52
f 38/118/53 36/366/53 47/119/53
f 28/121/45 48/367/45 35/122/45
f 49/124/45 50/368/45 35/125/45
f 51/127/45 52/369/45 50/128/45
f 53/130/45 54/370/45 52/131/45
f 55/133/45 56/371/45 54/134/45
f 29/136/45 37/372/45 56/137/45
f 33/139/44 39/373/44 37/140/44
f 37/142/44 39/374/44 41/143/44
f 41/145/44 43/375/44 54/146/44
f 43/148/44 45/376/44 52/149/44
f 52/151/44 45/377/44 47/152/44
f 47/154/44 36/378/44 35/155/44
f 28/157/42 27/379/42 38/158/42
f 48/160/42 38/380/42 46/161/42
f 46/163/42 44/381/42 51/164/42
f 51/166/42 44/382/42 42/167/42
f 53/169/42 42/383/42 40/170/42
f 40/172/42 30/384/42 29/173/42
f 57/175/55 58/385/55 59/176/55
f 61/178/56 62/386/56 63/179/56
f 63/181/57 65/387/57 66/182/58
f 68/184/59 58/388/59 57/185/59
f 64/187/60 66/389/60 69/188/60
f 59/190/61 58/390/61 68/191/62
f 62/193/63 71/391/63 65/194/63
f 62/196/64 72/392/64 73/197/64
f 72/199/65 74/393/66 75/200/66
f 74/202/67 76/394/67 77/203/67
f 78/205/68 79/395/68 77/206/68
f 70/208/69 68/396/69 79/209/69
f 80/211/60 67/397/60 57/212/60
f 81/214/60 82/398/60 67/215/60
f 83/217/60 84/399/60 82/218/60
f 85/220/60 86/400/60 84/221/60
f 87/223/60 88/401/60 86/224/60
f 61/226/60 69/402/60 88/227/60
f 65/229/59 71/403/59 69/230/59
f 69/232/59 71/404/59 73/233/59
f 73/235/59 75/405/59 86/236/59
f 75/238/59 77/406/59 84/239/59
f 84/241/59 77/407/59 79/242/59
f 79/244/59 68/408/59 67/245/59
f 60/247/56 59/409/56 70/248/56
f 80/250/56 70/410/56 78/251/56
f 78/253/56 76/411/56 83/254/56
f 83/256/56 76/412/56 74/257/56
f 85/259/56 74/413/56 72/260/56
f 72/262/56 62/414/56 61/263/56
f 90/265/70 91/415/70 92/266/70
f 93/268/71 94/416/71 95/269/71
f 96/271/72 95/417/72 97/272/72
f 100/274/73 90/418/73 89/275/73
f 96/277/74 98/419/74 101/278/74
f 102/280/75 91/420/75 90/281/75
f 94/283/76 103/421/76 97/284/76
f 104/286/77 105/422/77 103/287/77
f 104/289/78 106/423/78 107/290/78
f 106/292/79 108/424/80 109/293/80
f 110/295/81 111/425/81 109/296/81
f 102/298/82 100/426/82 111/299/82
f 112/301/74 99/427/74 89/302/74
f 113/304/74 114/428/74 99/305/74
f 115/307/74 116/429/74 114/308/74
f 117/310/74 118/430/74 116/311/74
f 119/313/74 120/431/74 118/314/74
f 93/316/74 101/432/74 120/317/74
f 97/319/73 103/433/73 101/320/73
f 101/322/73 103/434/73 105/323/73
f 105/325/73 107/435/73 118/326/73
f 107/328/73 109/436/73 116/329/73
f 116/331/73 109/437/73 111/332/73
f 111/334/73 100/438/73 99/335/73
f 92/337/71 91/439/71 102/338/71
f 112/340/71 102/440/71 110/341/71
f 110/343/71 108/441/71 115/344/71
f 115/346/71 108/442/71 106/347/71
f 117/349/71 106/443/71 104/350/71
f 104/352/71 94/444/71 93/353/71
